<svg xmlns="http://www.w3.org/2000/svg" viewBox="0 0 64 64" fill="none">
  <!-- Outer pin shape - dark blue -->
  <path d="M32 4C19.85 4 10 13.85 10 26c0 14.4 18.8 31.2 20.5 32.8a2 2 0 002.9 0C35.2 57.2 54 40.4 54 26 54 13.85 44.15 4 32 4z" fill="#4361ee"/>
  <!-- Swirl overlay - medium blue -->
  <path d="M32 4c-7.5 0-14 3.6-18.2 9.2C17.4 16.8 24.2 19 32 19c10 0 18.5-4 22-10C49.8 6 41.5 4 32 4z" fill="#818cf8"/>
  <!-- Inner swirl curve - light blue -->
  <path d="M54 26c0-3.2-.6-6.2-1.8-9-3.5 6-12 10-22.2 10-7 0-13.2-1.8-17.6-4.8C11.5 24 11 25 10.6 26.2c1.4 4 8.6 7.8 18.4 7.8C42 34 51 30 54 26z" fill="#a5b4fc" opacity="0.7"/>
  <!-- White inner circle -->
  <circle cx="32" cy="26" r="11" fill="white"/>
  <!-- Compass needle north - blue -->
  <path d="M32 16.5l3 8.5h-6l3-8.5z" fill="#4361ee"/>
  <!-- Compass needle south - light -->
  <path d="M32 35.5l-3-8.5h6l-3 8.5z" fill="#a5b4fc"/>
  <!-- Compass needle east -->
  <path d="M41.5 26l-8.5 3v-6l8.5 3z" fill="#a5b4fc"/>
  <!-- Compass needle west -->
  <path d="M22.5 26l8.5-3v6l-8.5-3z" fill="#a5b4fc"/>
  <!-- Center dot - orange accent -->
  <circle cx="32" cy="26" r="3.5" fill="#e8962e"/>
</svg>
