<svg xmlns="http://www.w3.org/2000/svg" viewBox="0 0 40 40" fill="none">
  <path d="M20 2C12.268 2 6 8.268 6 16c0 9.5 12.327 20.603 12.852 21.09a1.5 1.5 0 002.296 0C21.673 36.603 34 25.5 34 16c0-7.732-6.268-14-14-14z" fill="#4361ee"/>
  <circle cx="20" cy="16" r="7.5" fill="#818cf8"/>
  <circle cx="20" cy="16" r="6" fill="#fff"/>
  <path d="M20 10.5L21.8 15.2L20 14.5L18.2 15.2L20 10.5Z" fill="#4361ee"/>
  <path d="M20 21.5L18.2 16.8L20 17.5L21.8 16.8L20 21.5Z" fill="#a5b4fc"/>
  <path d="M26.5 16L21.8 17.8L22.5 16L21.8 14.2L26.5 16Z" fill="#a5b4fc"/>
  <path d="M13.5 16L18.2 14.2L17.5 16L18.2 17.8L13.5 16Z" fill="#a5b4fc"/>
  <circle cx="20" cy="16" r="2" fill="#e8962e"/>
</svg>
